HIERARCHY
ROOT joint_Root
{
	OFFSET 0.0 0.0 0.0
	CHANNELS 6 Xposition Yposition Zposition Zrotation Xrotation Yrotation 
	JOINT Hips
	{
		OFFSET -0.726466 93.3139 -2.00062
		CHANNELS 6 Xposition Yposition Zposition Zrotation Xrotation Yrotation 
		JOINT Spine
		{
			OFFSET 15.7357 0.0 0.0
			CHANNELS 6 Xposition Yposition Zposition Zrotation Xrotation Yrotation 
			JOINT Chest
			{
				OFFSET 8.98455 -0.406207 0.0
				CHANNELS 6 Xposition Yposition Zposition Zrotation Xrotation Yrotation 
				JOINT Neck
				{
					OFFSET 16.3773 0.0 0.0
					CHANNELS 6 Xposition Yposition Zposition Zrotation Xrotation Yrotation 
					JOINT Head
					{
						OFFSET 6.45672 0.0 0.0
						CHANNELS 6 Xposition Yposition Zposition Zrotation Xrotation Yrotation 
						End Site
						{
							OFFSET 0.0 0.0 0.0
						}
					}
				}
				JOINT Shoulder_L
				{
					OFFSET 12.9942 -0.242716 4.98039
					CHANNELS 6 Xposition Yposition Zposition Zrotation Xrotation Yrotation 
					JOINT UpperArm_L
					{
						OFFSET 5.34809 0.0 0.0
						CHANNELS 6 Xposition Yposition Zposition Zrotation Xrotation Yrotation 
						JOINT LowerArm_L
						{
							OFFSET 24.3286 1.87007e-05 0.0
							CHANNELS 6 Xposition Yposition Zposition Zrotation Xrotation Yrotation 
							JOINT Hand_L
							{
								OFFSET 22.2916 0.0 0.0
								CHANNELS 6 Xposition Yposition Zposition Zrotation Xrotation Yrotation 
								End Site
								{
									OFFSET 0.0 0.0 0.0
								}
							}
						}
					}
				}
				JOINT Shoulder_R
				{
					OFFSET 12.9945 -0.242716 -4.98039
					CHANNELS 6 Xposition Yposition Zposition Zrotation Xrotation Yrotation 
					JOINT UpperArm_R
					{
						OFFSET -5.34813 0.0 0.0
						CHANNELS 6 Xposition Yposition Zposition Zrotation Xrotation Yrotation 
						JOINT LowerArm_R
						{
							OFFSET -24.3289 0.000322201 0.0
							CHANNELS 6 Xposition Yposition Zposition Zrotation Xrotation Yrotation 
							JOINT Hand_R
							{
								OFFSET -22.2915 -0.000108084 0.0
								CHANNELS 6 Xposition Yposition Zposition Zrotation Xrotation Yrotation 
								End Site
								{
									OFFSET 0.0 0.0 0.0
								}
							}
						}
					}
				}
			}
		}
		JOINT UpperLeg_L
		{
			OFFSET -2.19248 -6.46944 0.0
			CHANNELS 6 Xposition Yposition Zposition Zrotation Xrotation Yrotation 
			JOINT LowerLeg_L
			{
				OFFSET 39.0811 0.0 -1.23785e-05
				CHANNELS 6 Xposition Yposition Zposition Zrotation Xrotation Yrotation 
				JOINT Foot_L
				{
					OFFSET 40.9854 0.0 -1.26872e-05
					CHANNELS 6 Xposition Yposition Zposition Zrotation Xrotation Yrotation 
					JOINT Toes_L
					{
						OFFSET 11.7543 0.0 0.0
						CHANNELS 6 Xposition Yposition Zposition Zrotation Xrotation Yrotation 
						End Site
						{
							OFFSET 0.0 0.0 0.0
						}
					}
				}
			}
		}
		JOINT UpperLeg_R
		{
			OFFSET -2.19251 6.46944 0.0
			CHANNELS 6 Xposition Yposition Zposition Zrotation Xrotation Yrotation 
			JOINT LowerLeg_R
			{
				OFFSET -39.0811 -0.00228153 -0.0401928
				CHANNELS 6 Xposition Yposition Zposition Zrotation Xrotation Yrotation 
				JOINT Foot_R
				{
					OFFSET -40.9854 0.0 0.0
					CHANNELS 6 Xposition Yposition Zposition Zrotation Xrotation Yrotation 
					JOINT Toes_R
					{
						OFFSET -11.7543 0.0 0.0
						CHANNELS 6 Xposition Yposition Zposition Zrotation Xrotation Yrotation 
						End Site
						{
							OFFSET 0.0 0.0 0.0
						}
					}
				}
			}
		}
	}
}
MOTION
Frames:	9
Frame Time:	0.0333333
0.000000 0.000000 0.000000 0.000000 0.000000 -0.000000 -1.647520 91.861800 -1.629030 88.011400 -2.126770 4.873630 15.735700 0.000005 -0.000001 75.538000 85.854200 -72.146500 8.984550 -0.406207 -0.000000 0.340233 -2.289640 6.785920 16.377300 -0.000001 -0.000001 1.898580 0.208579 -3.227450 6.456720 -0.000001 -0.000000 2.588720 -0.259980 -1.249680 12.994200 -0.242716 4.980390 -84.598000 -11.216700 -64.074200 5.348090 -0.000007 -0.000001 -53.789100 -56.036900 -85.605300 24.328600 0.000019 0.000005 -5.011150 -3.059590 -58.670900 22.291600 -0.000001 0.000005 14.775000 5.661850 -16.276500 12.994500 -0.242716 -4.980390 90.890700 -2.885110 -72.834700 -5.348130 -0.000001 -0.000004 -69.203900 85.395900 21.086100 -24.328900 0.000322 -0.000009 20.278300 1.778410 -85.199800 -22.291500 -0.000108 -0.000004 49.882900 5.662490 -16.352900 -2.192480 -6.469440 -0.000000 -169.612000 -18.353600 -3.034630 39.081100 -0.000007 -0.000012 -0.142972 0.314319 24.459300 40.985400 -0.000006 -0.000013 -5.599480 0.064726 -64.406200 11.754300 -0.000000 0.000003 -0.000044 -0.000505 -16.597200 -2.192510 6.469440 -0.000001 175.837000 21.937100 177.585000 -39.081100 -0.002282 -0.040193 0.032727 -0.066613 23.823700 -40.985400 0.000008 0.000006 0.806566 2.182500 -65.149000 -11.754300 -0.000006 -0.000006 -0.005926 -0.070162 -19.428500
0.000000 0.000000 0.000000 0.000000 0.000000 -0.000000 -1.662370 91.851000 -1.612920 87.987400 -2.211360 4.867270 15.735700 0.000005 -0.000001 75.399500 85.841600 -72.025900 8.984550 -0.406207 -0.000000 0.359825 -2.313630 6.750490 16.377300 -0.000001 -0.000001 1.888450 0.238913 -3.264290 6.456720 -0.000001 -0.000000 2.754860 -0.222010 -1.265290 12.994200 -0.242716 4.980390 -84.575900 -11.252300 -64.052100 5.348090 -0.000007 -0.000001 -53.804700 -56.054400 -85.463400 24.328600 0.000019 0.000005 -4.897990 -2.987670 -58.691500 22.291600 -0.000001 0.000005 14.791100 5.661400 -16.222000 12.994500 -0.242716 -4.980390 90.887200 -2.870250 -72.815800 -5.348130 -0.000001 -0.000004 -69.085100 85.387500 20.963400 -24.328900 0.000322 -0.000009 20.251800 1.773120 -85.207200 -22.291500 -0.000108 -0.000004 49.885100 5.662270 -16.327000 -2.192480 -6.469440 -0.000000 -169.558000 -18.370700 -3.029820 39.081100 -0.000007 -0.000012 -0.146896 0.322115 24.514900 40.985400 -0.000006 -0.000013 -5.629540 0.049468 -64.457200 11.754300 -0.000000 0.000003 -0.000059 -0.000650 -16.602800 -2.192510 6.469440 -0.000001 175.863000 21.882300 177.562000 -39.081100 -0.002282 -0.040193 0.028294 -0.056455 23.868000 -40.985400 0.000008 0.000006 0.788479 2.222820 -65.179900 -11.754300 -0.000006 -0.000006 -0.005590 -0.067065 -19.302200
0.000000 0.000000 0.000000 0.000000 0.000000 -0.000000 -1.681180 91.857300 -1.578610 87.947600 -2.235200 4.875110 15.735700 0.000005 -0.000001 74.997000 85.819800 -71.636700 8.984550 -0.406207 -0.000000 0.388751 -2.379690 6.724720 16.377300 -0.000001 -0.000001 1.998970 0.233194 -3.302100 6.456720 -0.000001 -0.000000 2.705230 -0.204994 -1.262840 12.994200 -0.242716 4.980390 -84.572900 -11.233300 -64.002000 5.348090 -0.000007 -0.000001 -54.002600 -56.051300 -85.587800 24.328600 0.000019 0.000005 -4.929910 -3.011630 -58.654500 22.291600 -0.000001 0.000005 14.731800 5.661560 -16.240900 12.994500 -0.242716 -4.980390 90.880400 -2.842640 -72.783800 -5.348130 -0.000001 -0.000004 -68.902300 85.283500 20.770700 -24.328900 0.000322 -0.000009 20.383800 1.788650 -85.199300 -22.291500 -0.000108 -0.000004 49.770400 5.661830 -16.278500 -2.192480 -6.469440 -0.000000 -169.506000 -18.371900 -2.978580 39.081100 -0.000007 -0.000012 -0.143285 0.314619 24.485800 40.985400 -0.000006 -0.000013 -5.650050 0.010378 -64.463800 11.754300 -0.000000 0.000003 -0.000046 -0.000524 -16.597900 -2.192510 6.469440 -0.000001 175.919000 21.934600 177.607000 -39.081100 -0.002282 -0.040193 0.035585 -0.073073 23.827800 -40.985400 0.000008 0.000006 0.977307 2.242920 -65.191500 -11.754300 -0.000006 -0.000006 -0.005777 -0.068795 -19.372800
0.000000 0.000000 0.000000 0.000000 0.000000 -0.000000 -1.682760 91.853900 -1.544170 87.962800 -2.322750 4.822890 15.735700 0.000005 -0.000001 74.799500 85.822500 -71.464300 8.984550 -0.406207 -0.000000 0.376165 -2.404860 6.674520 16.377300 -0.000001 -0.000001 2.144220 0.245936 -3.339860 6.456720 -0.000001 -0.000000 2.514640 -0.167437 -1.255210 12.994200 -0.242716 4.980390 -84.559900 -11.220000 -63.921000 5.348090 -0.000007 -0.000001 -54.202800 -56.056000 -85.695800 24.328600 0.000019 0.000005 -4.912370 -3.002090 -58.644000 22.291600 -0.000001 0.000005 14.726700 5.661160 -16.194100 12.994500 -0.242716 -4.980390 90.865700 -2.774420 -72.663600 -5.348130 -0.000001 -0.000004 -67.896700 85.300000 19.802600 -24.328900 0.000322 -0.000009 20.479900 1.791980 -85.214900 -22.291500 -0.000108 -0.000004 49.801900 5.661120 -16.190200 -2.192480 -6.469440 -0.000000 -169.513000 -18.411000 -2.968910 39.081100 -0.000007 -0.000012 -0.145848 0.320562 24.464600 40.985400 -0.000006 -0.000013 -5.672670 -0.004371 -64.492000 11.754300 -0.000000 0.000003 -0.000048 -0.000550 -16.598900 -2.192510 6.469440 -0.000001 175.899000 21.943600 177.576000 -39.081100 -0.002282 -0.040193 0.031305 -0.063380 23.827700 -40.985400 0.000008 0.000006 0.882194 2.338660 -65.204500 -11.754300 -0.000006 -0.000006 -0.005673 -0.067836 -19.333700
0.000000 0.000000 0.000000 0.000000 0.000000 -0.000000 -1.683940 91.847300 -1.498930 87.945300 -2.382200 4.829970 15.735700 0.000005 -0.000001 74.619600 85.811600 -71.296100 8.984550 -0.406207 -0.000000 0.390823 -2.434750 6.651580 16.377300 -0.000001 -0.000001 2.296340 0.267550 -3.378530 6.456720 -0.000001 -0.000000 2.463180 -0.088252 -1.227630 12.994200 -0.242716 4.980390 -84.555200 -11.217900 -63.896900 5.348090 -0.000007 -0.000001 -54.261100 -56.108400 -85.731900 24.328600 0.000019 0.000005 -4.919000 -3.012150 -58.593500 22.291600 -0.000001 0.000005 14.743700 5.661090 -16.185800 12.994500 -0.242716 -4.980390 90.852400 -2.711790 -72.543300 -5.348130 -0.000001 -0.000004 -66.953000 85.236700 18.896900 -24.328900 0.000322 -0.000009 20.642800 1.809440 -85.209900 -22.291500 -0.000108 -0.000004 49.708100 5.660550 -16.123700 -2.192480 -6.469440 -0.000000 -169.483000 -18.464300 -2.936370 39.081100 -0.000007 -0.000012 -0.143721 0.315245 24.508600 40.985400 -0.000006 -0.000013 -5.685540 -0.041734 -64.547800 11.754300 -0.000000 0.000003 -0.000054 -0.000606 -16.601100 -2.192510 6.469440 -0.000001 175.907000 21.932300 177.602000 -39.081100 -0.002282 -0.040193 0.032841 -0.066792 23.848400 -40.985400 0.000008 0.000006 0.918218 2.381540 -65.245000 -11.754300 -0.000006 -0.000006 -0.005867 -0.069625 -19.406600
0.000000 0.000000 0.000000 0.000000 0.000000 -0.000000 -1.672730 91.851100 -1.468730 87.962600 -2.482050 4.777340 15.735700 0.000005 -0.000001 74.444300 85.822900 -71.137200 8.984550 -0.406207 -0.000000 0.362249 -2.453160 6.618260 16.377300 -0.000001 -0.000001 2.472880 0.333382 -3.388960 6.456720 -0.000001 -0.000000 2.427620 0.028321 -1.239970 12.994200 -0.242716 4.980390 -84.531700 -11.228200 -63.819500 5.348090 -0.000007 -0.000001 -54.335500 -56.136800 -85.753800 24.328600 0.000019 0.000005 -4.916210 -3.010900 -58.589500 22.291600 -0.000001 0.000005 14.664200 5.660920 -16.165300 12.994500 -0.242716 -4.980390 90.834800 -2.646180 -72.484600 -5.348130 -0.000001 -0.000004 -66.114200 85.154300 18.114200 -24.328900 0.000322 -0.000009 20.532000 1.800460 -85.205600 -22.291500 -0.000108 -0.000004 49.597300 5.662110 -16.307900 -2.192480 -6.469440 -0.000000 -169.508000 -18.505200 -2.921310 39.081100 -0.000007 -0.000012 -0.145946 0.320931 24.454200 40.985400 -0.000006 -0.000013 -5.697570 -0.076605 -64.553600 11.754300 -0.000000 0.000003 -0.000064 -0.000698 -16.604500 -2.192510 6.469440 -0.000001 175.923000 21.840700 177.542000 -39.081100 -0.002282 -0.040193 0.037158 -0.076549 23.851100 -40.985400 0.000008 0.000006 1.011220 2.365460 -65.258500 -11.754300 -0.000006 -0.000006 -0.005775 -0.068777 -19.372000
0.000000 0.000000 0.000000 0.000000 0.000000 -0.000000 -1.673970 91.851200 -1.391700 87.960700 -2.484570 4.832240 15.735700 0.000005 -0.000001 74.132200 85.793500 -70.835200 8.984550 -0.406207 -0.000000 0.408099 -2.511080 6.599230 16.377300 -0.000001 -0.000001 2.630270 0.364902 -3.424130 6.456720 -0.000001 -0.000000 2.360290 0.121831 -1.204950 12.994200 -0.242716 4.980390 -84.510500 -11.246500 -63.767600 5.348090 -0.000007 -0.000001 -54.372500 -56.196300 -85.756400 24.328600 0.000019 0.000005 -4.911650 -3.003650 -58.627100 22.291600 -0.000001 0.000005 14.673600 5.660560 -16.122800 12.994500 -0.242716 -4.980390 90.807700 -2.542590 -72.370800 -5.348130 -0.000001 -0.000004 -64.951600 85.094000 17.100100 -24.328900 0.000322 -0.000009 20.595200 1.769080 -85.304500 -22.291500 -0.000108 -0.000004 49.447800 5.661560 -16.242700 -2.192480 -6.469440 -0.000000 -169.464000 -18.547000 -2.784490 39.081100 -0.000007 -0.000012 -0.145893 0.321330 24.419500 40.985400 -0.000006 -0.000013 -5.709990 -0.057939 -64.584500 11.754300 -0.000000 0.000003 -0.000053 -0.000599 -16.600800 -2.192510 6.469440 -0.000001 175.874000 21.888400 177.678000 -39.081100 -0.002282 -0.040193 0.039314 -0.081534 23.822900 -40.985400 0.000008 0.000006 1.072460 2.418580 -65.302700 -11.754300 -0.000006 -0.000006 -0.005732 -0.068383 -19.356000
0.000000 0.000000 0.000000 0.000000 0.000000 -0.000000 -1.650780 91.846500 -1.366780 87.969000 -2.576250 4.729470 15.735700 0.000005 -0.000001 74.161200 85.818400 -70.868100 8.984550 -0.406207 -0.000000 0.360670 -2.494500 6.590350 16.377300 -0.000001 -0.000001 2.694650 0.400301 -3.389460 6.456720 -0.000001 -0.000000 2.357720 0.138983 -1.276000 12.994200 -0.242716 4.980390 -84.512100 -11.230900 -63.743100 5.348090 -0.000007 -0.000001 -54.360500 -56.294800 -85.757700 24.328600 0.000019 0.000005 -4.987390 -3.046100 -58.661600 22.291600 -0.000001 0.000005 14.726100 5.660730 -16.143200 12.994500 -0.242716 -4.980390 90.808600 -2.537000 -72.315300 -5.348130 -0.000001 -0.000004 -64.489500 84.930700 16.641800 -24.328900 0.000322 -0.000009 20.558500 1.768880 -85.295900 -22.291500 -0.000108 -0.000004 49.276800 5.663130 -16.433500 -2.192480 -6.469440 -0.000000 -169.512000 -18.537600 -2.855210 39.081100 -0.000007 -0.000012 -0.145527 0.320321 24.433100 40.985400 -0.000006 -0.000013 -5.722610 -0.113900 -64.635100 11.754300 -0.000000 0.000003 -0.000052 -0.000581 -16.600100 -2.192510 6.469440 -0.000001 175.893000 21.791800 177.558000 -39.081100 -0.002282 -0.040193 0.038501 -0.079582 23.852300 -40.985400 0.000008 0.000006 1.089310 2.452080 -65.325800 -11.754300 -0.000006 -0.000006 -0.005509 -0.066311 -19.271500
0.000000 0.000000 0.000000 0.000000 0.000000 -0.000000 -1.628300 91.849100 -1.328260 87.968500 -2.623910 4.676160 15.735700 0.000005 -0.000001 74.246100 85.818800 -70.964100 8.984550 -0.406207 -0.000000 0.362549 -2.481590 6.568100 16.377300 -0.000001 -0.000001 2.697300 0.395928 -3.387260 6.456720 -0.000001 -0.000000 2.292790 0.124124 -1.258210 12.994200 -0.242716 4.980390 -84.514200 -11.205600 -63.701000 5.348090 -0.000007 -0.000001 -54.505900 -56.377700 -85.953400 24.328600 0.000019 0.000005 -5.043170 -3.078770 -58.674900 22.291600 -0.000001 0.000005 14.770800 5.661040 -16.179300 12.994500 -0.242716 -4.980390 90.786100 -2.457280 -72.253600 -5.348130 -0.000001 -0.000004 -64.064500 84.853100 16.305800 -24.328900 0.000322 -0.000009 20.553100 1.766370 -85.301200 -22.291500 -0.000108 -0.000004 49.213000 5.663860 -16.524000 -2.192480 -6.469440 -0.000000 -169.532000 -18.648400 -2.871180 39.081100 -0.000007 -0.000012 -0.147250 0.324246 24.424400 40.985400 -0.000006 -0.000013 -5.709240 -0.129145 -64.654200 11.754300 -0.000000 0.000003 -0.000068 -0.000738 -16.606100 -2.192510 6.469440 -0.000001 175.907000 21.759100 177.522000 -39.081100 -0.002282 -0.040193 0.041370 -0.086141 23.835500 -40.985400 0.000008 0.000006 1.147710 2.430840 -65.331900 -11.754300 -0.000006 -0.000006 -0.005592 -0.067080 -19.302900
